<?xml version="1.0" encoding="UTF-8"?>
<svg xmlns="http://www.w3.org/2000/svg" viewBox="0 0 512 512">
  <defs>
    <style>
      .i {
        fill: #cc4465;
        font-family: Galindo-Regular, Galindo;
        font-size: 264px;
      }

      .j {
        stroke: #ceebf2;
      }

      .j, .k {
        stroke-width: 30px;
      }

      .j, .k, .l {
        fill: none;
        stroke-linecap: round;
        stroke-linejoin: round;
      }

      .k {
        stroke: #f89957;
      }

      .l {
        stroke: #cc4465;
        stroke-width: 20px;
      }

      .m {
        fill: #5fcbef;
      }
    </style>
  </defs>
  <g id="b" data-name="Roof">
    <path class="m" d="M295.53,46.82c3.22,0,3.22-5,0-5s-3.22,5,0,5h0Z"/>
  </g>
  <g id="g" data-name="Layer 12">
    <polyline class="k" points="83.75 421.14 83.69 178.76 25.05 178.76 256 76.84 334.05 111.05 334.05 76.84 405.33 76.84 405.33 142.96 486.95 178.76 428.31 178.76 428.31 422.31"/>
    <text class="i" transform="translate(102.76 403.26) scale(.83 1)"><tspan x="0" y="0">O</tspan></text>
    <polyline class="j" points="295.91 406.97 295.91 306.56 295.91 215.24"/>
    <line class="j" x1="366.25" y1="306.56" x2="302.24" y2="306.56"/>
    <polyline class="j" points="372.59 406.97 372.59 306.56 372.59 215.24"/>
    <line class="l" x1="184.8" y1="234.07" x2="187.11" y2="383.61"/>
    <line class="l" x1="152.76" y1="306.56" x2="223.77" y2="304.66"/>
  </g>
</svg>