<?xml version="1.0" encoding="UTF-8"?>
<svg xmlns="http://www.w3.org/2000/svg" viewBox="0 0 1541.26 644.63">
  <defs>
    <style>
      .i {
        stroke: #ceebf2;
      }

      .i, .j, .k, .l {
        fill: none;
        stroke-linecap: round;
        stroke-linejoin: round;
      }

      .i, .j, .l {
        stroke-width: 30px;
      }

      .j {
        stroke: #f89957;
      }

      .k {
        stroke-width: 20px;
      }

      .k, .l {
        stroke: #cc4465;
      }

      .m {
        fill: #cc4465;
        font-family: Galindo-Regular, Galindo;
        font-size: 220px;
      }
    </style>
  </defs>
  <g id="d" data-name="Layer 9">
    <polyline class="j" points="522.42 528.52 522.42 214.1 587.57 214.1 462.71 147.98 462.78 87.95 421.28 87.6 420.62 125.69 330.96 78.21 74.36 214.1 139.5 214.1 139.5 528.52"/>
  </g>
  <g id="e" data-name="Layer 10">
    <line class="k" x1="720.11" y1="104.96" x2="722.42" y2="229.58"/>
    <line class="k" x1="688.07" y1="165.37" x2="759.08" y2="163.79"/>
    <text class="m" transform="translate(635.23 245.79)"><tspan x="0" y="0">Open</tspan></text>
    <line class="l" x1="191.12" y1="221.82" x2="467.5" y2="221.82"/>
    <polyline class="l" points="185.17 531.26 185.17 338.31 303.37 338.31 303.37 531.26"/>
    <line class="l" x1="266.8" y1="442.44" x2="266.8" y2="434.79"/>
  </g>
  <g id="f" data-name="Layer 11">
    <polyline class="i" points="641.78 530.04 641.78 429.63 641.78 338.31"/>
    <line class="i" x1="721.8" y1="429.63" x2="641.78" y2="429.63"/>
    <polyline class="i" points="721.8 530.04 721.8 429.63 721.8 338.31"/>
    <path class="i" d="M968.49,337.09v165.02c0,17.88-10.78,29.15-40.26,29.15h-4.54c-29.48,0-40.26-11.27-40.26-29.15v-165.02"/>
    <path class="i" d="M845.15,435.4v-69.15c0-17.88-10.78-29.15-40.26-29.15h-4.54c-29.48,0-40.26,11.27-40.26,29.15v66.71s0,69.15,0,69.15c0,17.88,10.78,29.15,40.26,29.15h4.54c29.48,0,40.26-11.27,40.26-29.15v-66.71Z"/>
    <path class="i" d="M1092.61,366.25c0-17.88-10.78-29.15-40.26-29.15h-4.54c-25.16,0-41.02,7.66-41.02,28.61v23.7c0,44.77,85.83,46.14,85.83,92.48,0,17.88,0,17.53,0,17.53v3.23c0,20.95-15.86,28.61-41.02,28.61h-4.54c-29.48,0-40.26-11.27-40.26-29.15"/>
    <line class="i" x1="1215.95" y1="434.18" x2="1130.89" y2="434.18"/>
    <polyline class="i" points="1215.95 338.31 1130.89 338.31 1130.89 530.04 1215.95 530.04"/>
  </g>
  <g id="g" data-name="Layer 12">
    <line class="k" x1="408.39" y1="308.34" x2="423.39" y2="447.45"/>
    <line class="k" x1="371.11" y1="385.5" x2="463.35" y2="383.92"/>
    <polygon class="k" points="361.76 314.87 379.31 447.41 467.5 449.74 458.14 301.37 361.76 314.87"/>
  </g>
</svg>