<?xml version="1.0" encoding="UTF-8"?>
<svg xmlns="http://www.w3.org/2000/svg" viewBox="0 0 1304.74 512">
  <defs>
    <style>
      .i {
        fill: #cc4465;
        font-family: Galindo-Regular, Galindo;
        font-size: 264px;
      }

      .j {
        stroke: #ceebf2;
      }

      .j, .k {
        stroke-width: 30px;
      }

      .j, .k, .l {
        fill: none;
        stroke-linecap: round;
        stroke-linejoin: round;
      }

      .k {
        stroke: #f89957;
      }

      .l {
        stroke: #cc4465;
        stroke-width: 20px;
      }

      .m {
        fill: #5fcbef;
      }

      .n {
        fill: #4e95ca;
        font-family: Barriecito-Regular, Barriecito;
        font-size: 260px;
      }
    </style>
  </defs>
  <g id="g" data-name="Layer 12">
    <path class="m" d="M296.54,48.48c3.22,0,3.22-5,0-5s-3.22,5,0,5h0Z"/>
    <polyline class="k" points="84.76 422.81 84.7 180.43 26.06 180.43 257.01 78.51 335.06 112.72 335.06 78.51 406.34 78.51 406.34 144.62 487.95 180.43 429.32 180.43 429.32 423.97"/>
    <text class="i" transform="translate(103.77 404.92) scale(.83 1)"><tspan x="0" y="0">O</tspan></text>
    <polyline class="j" points="296.92 408.64 296.92 308.23 296.92 216.91"/>
    <line class="j" x1="367.26" y1="308.23" x2="303.25" y2="308.23"/>
    <polyline class="j" points="373.59 408.64 373.59 308.23 373.59 216.91"/>
    <line class="l" x1="185.81" y1="235.74" x2="188.12" y2="385.28"/>
    <line class="l" x1="153.77" y1="308.22" x2="224.78" y2="306.33"/>
  </g>
  <g id="h" data-name="Layer 14">
    <text class="n" transform="translate(493.47 387.92)"><tspan x="0" y="0">Games</tspan></text>
  </g>
</svg>