<?xml version="1.0" encoding="UTF-8"?>
<svg id="c" data-name="Layer 7" xmlns="http://www.w3.org/2000/svg" viewBox="0 0 1024 1024">
  <defs>
    <style>
      .i {
        stroke: #f89957;
      }

      .i, .j, .k {
        fill: none;
        stroke-linecap: round;
        stroke-linejoin: round;
      }

      .i, .k {
        stroke-width: 30px;
      }

      .j {
        stroke: #cc4465;
        stroke-width: 20px;
      }

      .l {
        fill: #cc4465;
        font-family: Galindo-Regular, Galindo;
        font-size: 220px;
      }

      .k {
        stroke: #5295cc;
      }

      .m {
        fill: #4e95ca;
        font-family: Barriecito-Regular, Barriecito;
        font-size: 140px;
      }
    </style>
  </defs>
  <polyline class="i" points="192.9 805.02 192.9 652.89 192.9 514.52"/>
  <line class="i" x1="281.81" y1="652.89" x2="192.9" y2="652.89"/>
  <polyline class="i" points="281.81 805.02 281.81 652.89 281.81 514.52"/>
  <path class="k" d="M555.92,512.67v250.02c0,27.1-11.98,44.17-44.74,44.17h-5.05c-32.75,0-44.74-17.08-44.74-44.17v-250.02"/>
  <path class="k" d="M418.87,661.62v-104.77c0-27.1-11.98-44.17-44.74-44.17h-5.05c-32.75,0-44.74,17.08-44.74,44.17v101.07s0,104.77,0,104.77c0,27.1,11.98,44.17,44.74,44.17h5.05c32.75,0,44.74-17.08,44.74-44.17v-101.07Z"/>
  <path class="k" d="M693.82,556.84c0-27.1-11.98-44.17-44.74-44.17h-5.05c-27.96,0-45.58,11.61-45.58,43.35v35.92c0,67.83,95.37,69.91,95.37,140.12,0,27.1,0,26.57,0,26.57v4.89c0,31.74-17.62,43.35-45.58,43.35h-5.05c-32.75,0-44.74-17.08-44.74-44.17"/>
  <line class="k" x1="830.88" y1="659.77" x2="736.36" y2="659.77"/>
  <text class="l" transform="translate(220.94 429.22)"><tspan x="0" y="0">Open</tspan></text>
  <polyline class="k" points="830.88 514.52 736.36 514.52 736.36 805.02 830.88 805.02"/>
  <line class="j" x1="304.54" y1="288.81" x2="306.85" y2="413.43"/>
  <line class="j" x1="270.19" y1="349.21" x2="341.2" y2="347.63"/>
  <polyline class="i" points="831.1 468.51 831.1 289.58 939.68 289.58 731.58 179.37 731.69 79.31 662.53 78.75 661.44 142.23 512 63.09 84.32 289.58 192.9 289.58 192.9 514.52"/>
  <text class="m" transform="translate(303.75 948.27)"><tspan x="0" y="0">Games</tspan></text>
</svg>